<svg width="1200px" height="700px" viewBox="0 0 1200 700" xmlns="http://www.w3.org/2000/svg" version="1.1"><path d="M903.63,350.00 C903.37,352.79 925.77,364.05 926.03,366.84 C926.69,374.09 914.24,431.37 911.67,438.18 C908.32,447.03 872.86,514.12 867.37,521.82 C864.91,525.26 837.53,545.50 833.75,547.39 C826.51,551.00 766.14,574.73 758.20,576.29 C752.67,577.37 705.68,569.03 701.97,573.26 C694.00,582.32 666.22,675.86 661.11,686.79 C659.45,690.34 639.02,715.63 635.14,716.23 C626.55,717.54 557.76,704.89 549.13,703.89 C539.16,702.75 458.24,699.10 449.15,694.84 C442.85,691.89 413.96,642.90 408.83,638.20 C405.42,635.08 370.43,621.99 366.68,619.30 C360.05,614.54 313.30,568.56 306.19,564.57 C302.51,562.50 265.03,565.83 264.14,561.71 C263.01,556.51 293.56,523.96 296.41,519.47 C302.42,510.03 351.08,433.76 352.58,422.67 C353.15,418.42 314.31,415.50 310.79,413.06 C305.60,409.45 268.83,371.36 269.65,365.09 C271.09,354.01 321.98,278.99 329.29,270.54 C334.37,264.67 385.95,229.54 391.58,224.20 C397.11,218.97 433.94,169.95 440.19,165.60 C449.82,158.88 540.19,125.82 546.68,116.03 C553.07,106.39 544.89,10.90 549.69,0.38 C551.79,-4.22 596.09,-4.09 600.21,-1.18 C613.03,7.89 694.72,104.88 708.38,112.61 C713.55,115.53 758.41,93.69 763.91,91.45 C768.04,89.76 801.32,70.42 804.65,73.38 C813.78,81.52 856.84,170.36 863.77,180.44 C870.02,189.53 933.21,253.32 935.74,264.06 C937.84,272.99 904.49,340.87 903.63,350.00 Z" stroke="#111111" fill="none" stroke-width="2"></path></svg>