<svg width="1200px" height="700px" viewBox="0 0 1200 700" xmlns="http://www.w3.org/2000/svg" version="1.1"><path d="M954.28,350.00 C953.93,352.02 950.78,368.15 950.46,370.18 C950.43,370.37 950.78,371.95 950.80,372.15 C950.84,372.54 951.01,375.65 951.01,376.04 C951.01,376.16 950.84,377.09 950.83,377.21 C950.83,377.24 950.86,377.51 950.87,377.54 C950.87,377.57 950.92,377.77 950.92,377.79 C950.92,377.81 950.93,377.95 950.93,377.97 C950.93,378.04 950.94,378.57 950.91,378.63 C950.81,378.81 949.88,380.25 949.70,380.36 C949.04,380.73 943.42,383.14 942.68,383.30 C942.39,383.37 939.81,382.26 939.82,382.55 C939.82,383.27 942.51,388.44 942.71,389.13 C942.79,389.39 942.54,391.54 942.53,391.81 C942.50,392.40 942.35,397.18 942.22,397.76 C941.71,400.01 937.12,417.92 936.14,420.01 C935.73,420.89 929.58,425.75 928.83,426.37 C927.20,427.73 914.10,438.52 912.41,439.81 C912.09,440.05 909.08,441.40 908.80,441.68 C907.91,442.57 901.72,450.43 900.86,451.34 C899.84,452.42 891.03,460.47 890.03,461.57 C888.29,463.51 875.28,479.78 873.56,481.74 C873.27,482.07 870.39,484.19 870.03,484.46 C869.77,484.66 867.69,486.39 867.36,486.46 C866.96,486.55 863.70,485.82 863.30,485.93 C862.40,486.17 855.67,489.54 854.80,489.87 C854.48,490.00 851.71,490.32 851.43,490.52 C850.45,491.20 843.03,497.36 842.55,498.45 C840.65,502.69 829.49,538.23 828.09,542.66 C827.62,544.14 824.29,556.02 823.88,557.51 C823.87,557.53 823.94,557.68 823.94,557.70 C823.95,557.74 824.00,558.06 824.01,558.10 C824.01,558.13 823.98,558.30 823.97,558.32 C823.97,558.33 823.98,558.45 823.98,558.46 C823.98,558.47 823.99,558.52 823.98,558.52 C823.83,558.83 822.59,561.33 822.43,561.64 C822.16,562.16 819.97,566.34 819.65,566.84 C819.32,567.35 816.32,571.23 815.97,571.72 C815.48,572.40 811.51,577.82 811.26,578.62 C811.00,579.40 811.40,586.11 811.09,586.87 C810.96,587.20 808.00,587.46 807.67,587.55 C807.54,587.59 806.59,588.12 806.48,588.20 C806.41,588.24 805.92,588.64 805.87,588.70 C805.08,589.67 798.76,597.39 798.16,598.47 C797.85,599.03 797.14,604.06 797.00,604.68 C796.86,605.26 795.57,609.87 795.42,610.45 C795.39,610.56 795.24,611.42 795.23,611.53 C795.23,611.57 795.33,611.94 795.30,611.98 C795.00,612.32 792.40,614.85 792.09,615.18 C790.53,616.77 778.13,629.56 776.56,631.14 C776.45,631.25 775.40,632.04 775.26,632.12 C775.15,632.19 774.17,632.56 774.07,632.64 C773.69,632.91 770.82,635.25 770.51,635.59 C770.16,635.97 768.05,639.70 767.54,639.78 C763.61,640.33 731.80,641.91 727.83,641.63 C727.23,641.59 724.75,637.07 724.24,636.73 C723.21,636.03 713.98,632.11 712.88,631.51 C711.02,630.51 696.36,622.05 694.73,620.71 C692.81,619.13 679.72,604.15 677.82,602.56 C677.05,601.91 669.38,599.20 668.51,598.70 C667.05,597.87 654.98,587.65 654.62,589.28 C653.76,593.20 661.89,624.66 661.92,628.66 C661.94,631.37 655.91,652.24 655.20,654.85 C654.84,656.17 651.48,666.62 651.19,667.96 C651.06,668.54 651.00,673.30 651.03,673.89 C651.04,674.13 651.52,675.96 651.60,676.18 C651.75,676.58 653.19,679.70 653.36,680.09 C653.69,680.86 656.39,686.96 656.59,687.77 C656.80,688.58 658.04,695.50 657.47,696.11 C656.62,697.00 646.86,699.25 645.64,699.33 C643.83,699.46 629.41,698.02 627.60,698.12 C626.41,698.18 617.14,700.65 615.99,700.95 C615.45,701.08 611.19,702.32 610.67,702.51 C609.49,702.93 600.18,707.17 598.93,706.99 C594.59,706.36 561.16,695.30 556.82,694.70 C555.26,694.49 543.28,698.94 541.71,699.07 C541.18,699.12 537.61,696.48 537.08,696.41 C536.68,696.36 533.86,698.01 533.47,698.06 C532.17,698.23 521.76,698.49 520.46,698.57 C520.11,698.59 517.41,699.13 517.07,699.10 C516.71,699.07 513.94,698.13 513.59,698.01 C513.42,697.95 512.11,697.38 511.93,697.32 C511.89,697.31 511.48,697.37 511.44,697.34 C510.11,696.66 499.54,691.07 498.28,690.27 C498.08,690.14 497.28,688.40 497.14,688.21 C497.10,688.14 496.59,687.76 496.52,687.71 C496.46,687.67 495.99,687.37 495.93,687.33 C495.83,687.24 495.13,686.30 495.01,686.34 C488.10,688.95 432.98,716.88 426.35,713.61 C417.57,709.28 383.45,636.62 377.85,628.59 C375.73,625.55 352.77,606.59 349.99,604.13 C348.38,602.70 333.20,591.71 333.94,589.68 C336.46,582.77 373.73,536.69 377.00,530.10 C378.32,527.42 378.67,503.16 378.26,500.20 C377.73,496.26 368.69,465.74 367.67,461.90 C367.30,460.50 364.71,449.16 364.37,447.75 C364.36,447.71 364.17,447.51 364.16,447.48 C364.12,447.41 363.92,446.87 363.89,446.80 C363.81,446.65 363.12,445.49 363.02,445.35 C362.95,445.27 362.26,444.71 362.24,444.61 C362.18,444.38 362.25,442.47 362.24,442.23 C362.23,442.15 362.11,441.46 362.09,441.38 C362.08,441.34 361.98,441.05 361.98,441.01 C361.99,440.80 362.20,439.17 362.21,438.96 C362.23,438.77 362.22,437.19 362.26,436.99 C362.32,436.73 363.07,434.66 363.18,434.42 C363.71,433.28 368.15,424.27 368.64,423.11 C368.83,422.66 369.84,418.91 369.92,418.43 C369.96,418.20 369.92,416.28 369.89,416.04 C369.88,415.93 369.58,415.10 369.56,415.00 C369.53,414.88 369.39,413.95 369.33,413.85 C369.10,413.49 366.94,410.82 366.69,410.47 C366.47,410.16 364.73,407.59 364.60,407.23 C364.49,406.96 364.55,404.52 364.37,404.28 C363.83,403.59 358.44,399.09 357.80,398.49 C357.01,397.74 350.82,391.56 350.05,390.80 C349.46,390.21 344.67,385.53 344.11,384.90 C343.68,384.41 340.51,380.23 340.14,379.69 C339.17,378.28 331.74,366.69 330.71,365.32 C330.55,365.11 328.69,364.22 328.47,364.09 C328.35,364.02 327.44,363.44 327.33,363.36 C327.01,363.11 324.48,361.12 324.17,360.86 C324.11,360.81 323.70,360.33 323.65,360.26 C323.48,360.04 322.20,358.19 322.02,357.98 C321.92,357.88 320.95,357.23 320.88,357.10 C320.53,356.42 317.54,350.72 317.87,350.02 C318.17,349.39 324.14,349.33 324.73,348.96 C326.27,347.99 336.71,337.62 338.44,337.05 C339.62,336.66 349.23,340.14 350.43,340.48 C350.88,340.60 354.50,341.59 354.96,341.66 C355.25,341.71 357.61,341.60 357.91,341.63 C358.02,341.64 358.92,341.97 359.04,341.98 C359.50,341.99 363.19,341.80 363.65,341.83 C364.15,341.86 368.08,342.49 368.58,342.53 C369.38,342.59 375.89,342.68 376.68,342.85 C377.42,343.01 382.99,345.40 383.68,345.70 C384.02,345.84 387.05,347.54 387.04,347.17 C386.68,336.85 380.91,254.44 380.14,244.14 C380.10,243.67 379.12,240.02 378.97,239.57 C378.90,239.39 378.11,238.07 378.03,237.89 C378.00,237.83 377.90,237.25 377.88,237.17 C377.87,237.13 377.73,236.83 377.72,236.79 C377.56,236.05 376.28,230.11 376.12,229.36 C376.02,228.89 375.23,225.13 375.17,224.65 C375.03,223.62 374.80,215.06 374.12,214.26 C371.91,211.63 350.57,194.19 347.81,192.14 C347.00,191.54 339.50,188.34 338.58,187.92 C338.48,187.88 337.70,187.58 337.59,187.56 C337.32,187.50 335.14,187.21 334.86,187.20 C334.48,187.18 331.41,187.38 331.04,187.26 C330.05,186.96 321.55,184.08 321.58,183.05 C321.64,179.95 331.02,156.79 331.74,153.77 C332.13,152.16 331.94,138.76 332.56,137.23 C333.65,134.56 346.68,115.47 348.29,113.08 C349.09,111.90 355.81,102.67 356.62,101.50 C357.37,100.41 363.22,91.57 363.95,90.46 C364.61,89.45 369.71,81.18 370.55,80.30 C371.32,79.48 378.62,73.87 379.74,73.86 C384.16,73.80 419.17,79.40 423.58,79.64 C424.03,79.66 426.35,76.67 426.70,76.39 C427.15,76.03 431.04,73.50 431.57,73.25 C433.05,72.54 445.27,67.58 446.72,66.80 C447.52,66.37 453.27,61.91 453.94,61.29 C454.66,60.62 459.75,54.57 460.52,53.95 C461.49,53.17 469.98,47.94 471.12,47.45 C472.85,46.70 487.26,42.38 489.01,41.71 C489.18,41.64 489.89,40.32 490.02,40.19 C490.11,40.09 491.05,39.59 491.15,39.51 C491.30,39.38 492.46,38.25 492.59,38.10 C492.68,37.99 493.28,37.01 493.37,36.89 C493.54,36.66 495.11,34.89 495.20,34.61 C496.04,32.05 500.66,10.53 502.64,8.70 C503.92,7.50 503.91,24.47 504.27,26.19 C505.00,29.58 513.05,56.18 513.47,59.62 C513.75,61.92 509.98,80.74 511.24,82.69 C512.45,84.54 530.35,88.21 532.47,88.84 C532.85,88.95 535.81,89.98 536.16,90.15 C536.31,90.22 537.25,91.14 537.36,91.26 C537.42,91.32 537.72,91.89 537.78,91.95 C538.02,92.22 540.00,94.33 540.28,94.57 C540.42,94.70 541.76,95.71 541.90,95.59 C543.57,94.07 555.68,80.70 557.26,79.09 C558.77,77.53 571.04,65.20 572.75,63.87 C574.54,62.46 590.11,53.00 592.07,51.85 C592.27,51.74 594.08,51.34 594.29,51.26 C594.55,51.16 596.57,50.19 596.79,50.03 C597.14,49.79 599.56,47.33 599.97,47.23 C601.68,46.81 615.71,45.04 617.47,44.97 C622.69,44.74 664.61,45.30 669.74,44.28 C674.90,43.26 713.48,25.74 718.66,24.84 C720.15,24.58 729.66,32.81 730.95,33.60 C731.35,33.86 734.98,35.13 735.43,35.28 C735.58,35.33 736.81,35.61 736.96,35.65 C736.98,35.66 737.12,35.71 737.14,35.72 C737.18,35.73 737.46,35.86 737.49,35.88 C737.52,35.89 737.75,36.02 737.73,36.05 C737.47,36.78 734.73,42.52 734.79,43.30 C734.92,45.41 738.44,62.07 739.57,63.85 C741.32,66.62 761.06,84.30 762.52,87.24 C764.13,90.47 768.06,119.29 768.95,122.80 C769.20,123.81 772.86,131.57 773.81,131.99 C774.50,132.30 779.46,128.16 780.11,127.76 C780.64,127.42 784.94,124.73 785.56,124.59 C787.25,124.22 801.07,122.77 802.80,122.71 C803.21,122.70 806.29,123.82 806.68,123.94 C807.56,124.22 814.58,126.44 815.45,126.73 C815.62,126.79 816.91,127.41 817.06,127.50 C817.10,127.52 817.29,127.82 817.33,127.85 C817.42,127.93 818.19,128.58 818.31,128.62 C818.88,128.82 823.58,130.09 824.17,130.24 C824.56,130.33 827.71,130.87 828.08,131.03 C833.86,133.44 881.23,151.28 885.52,155.84 C888.36,158.85 889.35,192.89 890.17,196.94 C890.31,197.61 894.40,201.41 894.87,201.91 C895.08,202.13 896.73,203.94 896.94,204.16 C896.97,204.20 897.18,204.48 897.20,204.51 C897.21,204.53 897.28,204.70 897.30,204.71 C897.47,204.84 898.93,205.77 899.09,205.92 C899.17,206.00 899.56,206.89 899.63,206.99 C899.70,207.08 900.35,207.74 900.44,207.80 C900.71,208.01 903.03,209.53 903.29,209.76 C903.52,209.95 905.13,211.64 905.28,211.89 C905.86,212.82 910.00,220.60 910.61,221.51 C910.78,221.75 912.70,223.11 912.92,223.30 C912.99,223.36 913.51,224.00 913.58,224.08 C913.62,224.12 913.99,224.45 914.00,224.51 C914.14,225.93 914.52,237.39 914.97,238.75 C917.24,245.54 938.00,298.97 941.06,305.45 C941.96,307.36 953.17,320.13 954.29,321.93 C954.81,322.78 957.18,330.52 957.18,331.52 C957.18,333.39 954.60,348.16 954.28,350.00 Z" stroke="#111111" fill="none" stroke-width="2"></path></svg>